<svg width="512" height="512" viewBox="0 0 512 512" fill="none" xmlns="http://www.w3.org/2000/svg">
  <defs>
    <linearGradient id="paint0_linear" x1="84" y1="68" x2="428" y2="444" gradientUnits="userSpaceOnUse">
      <stop stop-color="#2563EB" />
      <stop offset="1" stop-color="#6366F1" />
    </linearGradient>
    <linearGradient id="paint1_linear" x1="152" y1="120" x2="360" y2="368" gradientUnits="userSpaceOnUse">
      <stop stop-color="#FFFFFF" stop-opacity="0.15" />
      <stop offset="1" stop-color="#FFFFFF" stop-opacity="0" />
    </linearGradient>
  </defs>
  <rect x="32" y="32" width="448" height="448" rx="120" fill="url(#paint0_linear)" />
  <rect x="64" y="64" width="384" height="384" rx="100" fill="url(#paint1_linear)" />
  <g transform="translate(112 112) scale(18)">
    <path d="M9 12h6m-6 4h6m2 5H7a2 2 0 01-2-2V5a2 2 0 012-2h5.586a1 1 0 01.707.293l5.414 5.414a1 1 0 01.293.707V19a2 2 0 01-2 2z" stroke="white" stroke-width="1.2" stroke-linecap="round" stroke-linejoin="round" fill="none" />
    <circle cx="8" cy="6" r="0.6" fill="#FBBF24" />
    <circle cx="10" cy="6" r="0.6" fill="#34D399" />
    <circle cx="12" cy="6" r="0.6" fill="#F87171" />
  </g>
</svg>
